<?xml version="1.0" encoding="UTF-8"?>
<svg version="1.1" viewBox="0 0 1027 845" width="1280" height="1280" xmlns="http://www.w3.org/2000/svg">
<path transform="translate(0)" d="m0 0h1027v845h-1027z" fill="#F8FAFB"/>
<path transform="translate(0)" d="m0 0h1027v845h-1027zm13 12v820h295l1-5v5l6-1 1-2 1 3h18v-4h2l1 4h7l1-2 3 2h275l1-4h4l1 4h29l1-2 3 1-3 1h72 2 8l1-4v4h52v-5l2-1v6h19v-5h2v5h10l4-1 4 1 1-4h2l1 4h4l-1-3v2h-2v-3h2v-2h2v6h72 1 2l1-3v3h10v-4l2 1v3h2v-2l6 2h73v-100-3-47l-2-1 2-3v-47-3-48-3-565z" fill="#272828"/>
<path transform="translate(35,114)" d="m0 0h203l4 2 1 2v40l-3 3h-206l-4-4v-38z" fill="#0688F7"/>
<path transform="translate(364,160)" d="m0 0h1l1 16 12 3 10 7 5 8 3 11-1 10-3 9 10 7v2l-5-2-6-4-4 2-7 6-8 3-9 1-12-3-8-6-6-7-3-8-1-9 3-12 6-8 7-6 8-3 6-1z" fill="#FAFCFB"/>
<path transform="translate(360,158)" d="m0 0 4 1v17l-7 2-8 3-9 8-4 7-2 13 3 12 6 8 8 6 12 3 13-2 9-6 4-4 5 2 11 7-3 5-7 7-8 5-12 4-6 1h-9l-13-3-10-5-10-9-7-10-4-12-1-6v-9l3-13 5-10 9-10 10-7 12-4z" fill="#0068D5"/>
<path transform="translate(366,158)" d="m0 0 9 1 14 5 9 7 7 8 4 6 4 12 1 8v8l-4 14-3 6h-3l-12-8-1-2 4-13-1-10-4-9-4-6-8-5-12-3-1-1v-17z" fill="#004DB4"/>
<path transform="translate(628,666)" d="m0 0h43l5 1v2l5 1-1 6 3-1 1 4-2 6h-4l-3 1 3 2-5 2h-49l-5-3-3-6 1-5 3-3v-3l3-3z" fill="#E0F4F1"/>
<path transform="translate(624,616)" d="m0 0h50l3 3-1 1 2 2 3-1 2 8-2 2-1 2-1 4h-3l-1 2-4 1h-43l-7-2-1-7-4-1v-6l3-5z" fill="#E0F4F1"/>
<path transform="translate(629,767)" d="m0 0h43l5 1v2l4 1-1 6 3-1 1 4-2 6h-4l-3 1 3 2-5 2h-48l-5-3-3-6 1-5 3-3v-3l3-3z" fill="#DDF1F0"/>
<path transform="translate(628,565)" d="m0 0h43l5 1v2l4 1-1 6 3-1 1 4-2 6h-4l-3 1 3 2-5 2h-48l-5-3-3-6 1-5 3-3v-3l3-3z" fill="#E0F3F1"/>
<path transform="translate(627,717)" d="m0 0m47 0 4 3v2l4 1 1 1v8l-2 1-1 4-5 3h-51l-3-3-1-5-3 1v-2h2v-4h-2l1-5 5-4h4v2h46z" fill="#DEF2F1"/>
<path transform="translate(629,818)" d="m0 0h43l6 2 5 5 1 7h-24l3-1-3-1-1 2h-29l-1-4h-4l-1 4h-7v-6l1-2h2l2-4z" fill="#E5F6F2"/>
<path transform="translate(996,567)" d="m0 0h18v10 3 8l-4 1-20-1-2-6-3-1v-6h3v-2l-2-1 3-2v-2h6z" fill="#C5E6F2"/>
<path transform="translate(1010,616)" d="m0 0 4 1v11 3 7h-18l-4-1h-3l-1-3-2-2h2v-2h-3v-6l3-1 2-5 6-1z" fill="#C4E5F2"/>
<path transform="translate(993,718)" d="m0 0 21 1v10 3 7h-18l-7-1-1-3-2-2h2v-2h-3v-6l3-1 2-4v2h2z" fill="#D8EFF2"/>
<path transform="translate(53,128)" d="m0 0 7 4 2 2v12h-16l-1-1v-10z" fill="#2597F8"/>
<path transform="translate(531,229)" d="m0 0h6l2 1v3h2v11h-2v3l-2 1h-6l-4-4-1-8 3-6z" fill="#163866"/>
<path transform="translate(491,229)" d="m0 0 6 1 3 5v7l-3 5-1 1h-6l-4-5v-10l2-3z" fill="#1D314C"/>
<path transform="translate(514,229)" d="m0 0 7 1 2 3v11l-4 4-7-1-3-6 1-8z" fill="#163864"/>
<path transform="translate(293,59)" d="m0 0h3l4 12 3-12h4l3 12 4-12h3l-2 11-3 8-4-1-2-6v-5h-2l-1 8-2 4-4-1-4-15z" fill="#1A375C"/>
<path transform="translate(40,36)" d="m0 0 4 2 6 7-2 4-6 6-4-1-7-6 1-5z" fill="#0356B8"/>
<path transform="translate(444,227)" d="m0 0 1 2 5 2 1 3-4-1-2-1 1 5 5 3v6l-3 2h-3l-1 2v-2l-5-1-2-4 4-1 3 3-1-5-5-3v-5l4-3h2z" fill="#1F3249"/>
<path transform="translate(73,39)" d="m0 0h10l2 1v5 2l1 5-1 2h-12z" fill="#143F74"/>
<path transform="translate(358,64)" d="m0 0h6l4 4-1 8-3 2h-6l-3-3v-8z" fill="#1D334E"/>
<path transform="translate(371,64)" d="m0 0h9 3 5l2 2v12h-3v-11l-4 1-1 10h-3v-11l-4 1-1 10h-3z" fill="#212D3E"/>
<path transform="translate(628,717)" d="m0 0h44l1 3h-46z" fill="#F0FCF6"/>
<path transform="translate(471,64)" d="m0 0h7l2 2v12h-10l-2-2 1-5 7-3h-4-3v-3z" fill="#2898F8"/>
<path transform="translate(432,64)" d="m0 0h7l2 2v12h-10l-2-2 1-5 7-3h-4-3v-3z" fill="#2898F8"/>
<path transform="translate(397,64)" d="m0 0h6l3 4v4l-9 1v2l9-1-3 4h-6l-3-2-1-8z" fill="#456086"/>
<path transform="translate(322,64)" d="m0 0h6l3 4v4l-9 1v2l9-1-3 4h-6l-3-2-1-8z" fill="#456086"/>
<path transform="translate(501,64)" d="m0 0h7l2 2v12h-10l-2-5 3-3 6-1-1-2-7 1z" fill="#2496F8"/>
<path transform="translate(474,229)" d="m0 0 7 1 2 5-3 5-4 4 7 1v3h-13l1-4 7-7v-4l-4-1-1 3h-3l2-5z" fill="#202F43"/>
<path transform="translate(458,229)" d="m0 0 7 1 2 3-1 4v2l1 1-1 7-2 1h-7l-3-3v-2l9 1v-3l-4-1v-3l4-2v-3h-5v2l-4-1z" fill="#202E41"/>
<path transform="translate(416,59)" d="m0 0h11v3h-8v6h7v2h-7v8h-4v-18z" fill="#0688F7"/>
<path transform="translate(294,318)" d="m0 0h7l3 2v5l-1 4 1 4-3-1-2-4-3-1v6h-2z" fill="#6D7989"/>
<path transform="translate(53,128)" d="m0 0 7 4 2 2v12h-16l-1-1v-10zm-1 3-5 4v9h13v-9l-5-4z" fill="#FBFCFC"/>
<path transform="translate(483,64)" d="m0 0h10l2 2v12h-3l-1-10-4-1-1 11h-3z" fill="#0789F8"/>
<path transform="translate(539,573)" d="m0 0h13l-1 8-13 1-1-3 4 1v-2h-2v-2l-2-2z" fill="#8EB4DA"/>
<path transform="translate(547,674)" d="m0 0 2 1-2 6h2v-5h3l1-2 6 1v8l-6-1-2-1v2l-6-1-1-1v-5z" fill="#B0CAE5"/>
<path transform="translate(456,322)" d="m0 0h6l2 3-1 7-1 1h-6l-3-5 2-5z" fill="#143B6E"/>
<path transform="translate(116,38)" d="m0 0h5l1 8 1-3h6l-4 5 4 6h-6v-3l-2-1 1 4h-6l2-1v-14z" fill="#163A67"/>
<path transform="translate(454,64)" d="m0 0h11l-1 4-4 6 5 1v3h-11l1-4 5-6-6-1z" fill="#0789F8"/>
<path transform="translate(521,572)" d="m0 0 4 1v2h2v-2l6 1-2 7-10 1-2-1 1-2 3 1v-2l-4-1 1-4z" fill="#85ADD7"/>
<path transform="translate(491,232)" d="m0 0 5 1 1 8-2 4-5-1-1-2v-7z" fill="#FBFCFC"/>
<path transform="translate(90,43)" d="m0 0h7l1 1v9l2 1-5 1h-5l-1-1v-5l6-1v-4h-3v2h-3z" fill="#19375E"/>
<path transform="translate(343,64)" d="m0 0h6l3 2v2l-3 1v-2l-5 1v6l3 1 4-2 1 2-2 3h-7l-3-3v-8z" fill="#1F3249"/>
<path transform="translate(532,232)" d="m0 0 5 1v11l-6 1-1-2v-9z" fill="#FBFCFC"/>
<path transform="translate(419,322)" d="m0 0h6l2 2v9h-8l-2-4 1-2 6-1v-2l-6 1z" fill="#1B3454"/>
<path transform="translate(437,163)" d="m0 0 7 1 1 3v6l-1 1h-7z" fill="#627792"/>
<path transform="translate(58,39)" d="m0 0h13l-1 4h-2v-3h-5v6l5-2v5h-2v-2h-3v6l2 1h-7l2-1-1-12z" fill="#203145"/>
<path transform="translate(515,232)" d="m0 0 4 1 1 1v8l-2 3h-4l-1-2v-9z" fill="#FBFCFC"/>
<path transform="translate(383,322)" d="m0 0h7l1 1v10h-8l-1-5 6-3h-5z" fill="#587495"/>
<path transform="translate(332,322)" d="m0 0h6l2 2v4h-7l1 2h6l-2 3-7-1-1-7z" fill="#1F2F46"/>
<path transform="translate(308,322)" d="m0 0h6l2 2v4h-7l1 2h6l-2 3-7-1-1-7z" fill="#1F2F46"/>
<path transform="translate(102,43)" d="m0 0h10l1 1v9l2 1h-6v-9h-2v9h-5z" fill="#18375F"/>
<path transform="translate(537,233)" d="m0 0h4v11h-2v3l-2 1h-6l-3-3 9-1z" fill="#1C314F"/>
<path transform="translate(293,59)" d="m0 0h3l3 10v4l3-1v5l-4 1-3-8z" fill="#1E304A"/>
<path transform="translate(314,59)" d="m0 0h3l-2 11-3 8-4-1v-4h3l1-8z" fill="#1E314A"/>
<path transform="translate(93,135)" d="m0 0h10l1 1v7l-4-1-3 1v-6h-2v6h-2z" fill="#FAFCFB"/>
<path transform="translate(539,825)" d="m0 0 8 1h4l1 4-1 2h-7l-4-1v-2h-2z" fill="#B3CEE5"/>
<path transform="translate(519,232)" d="m0 0 4 1v11l-4 4-7-1-1-2 7-1 1-2z" fill="#1D314C"/>
<path transform="translate(73,39)" d="m0 0h10l-2 2-4-1v6l4 1-3 1-1 5h7v1h-11z" fill="#1C3857"/>
<path transform="translate(466,322)" d="m0 0h9l1 1v10h-2l-1-9-3 1-1 8-3-1z" fill="#134177"/>
<path transform="translate(394,322)" d="m0 0h9l1 1v10h-2l-1-9-3 1-1 8-3-1z" fill="#134177"/>
<path transform="translate(342,322)" d="m0 0h9l1 1v10h-2l-1-9-3 1-1 8-3-1z" fill="#134177"/>
<path transform="translate(486,233)" d="m0 0 3 1 2 10 6-1v4l-1 1h-6l-4-5z" fill="#1E324B"/>
<path transform="translate(387,468)" d="m0 0 5 1 1 1v6l-2 2h-4l-1-2v-7z" fill="#64A0E1"/>
<path transform="translate(396,468)" d="m0 0 5 1 1 6-2 3-5-1v-8z" fill="#6AA4E2"/>
<path transform="translate(375,468)" d="m0 0 5 1 1 6-2 3-5-1v-8z" fill="#6AA4E2"/>
<path transform="translate(99,194)" d="m0 0h6l1 5-1 4h-6z" fill="#5B7BA5"/>
<path transform="translate(371,64)" d="m0 0h9l1 2-6 2-1 10h-3z" fill="#1F3047"/>
<path transform="translate(445,447)" d="m0 0h6v9l-1 1h-5l1-2-2-2v-5z" fill="#0C4C96"/>
<path transform="translate(408,322)" d="m0 0h6l1 3-6-1v2l5 1 1 5-7 1-2-3h6l-6-4z" fill="#1A3558"/>
<path transform="translate(444,64)" d="m0 0h8v3l-4 2-1 9h-3z" fill="#0789F8"/>
<path transform="translate(401,623)" d="m0 0 5 1 1 6-2 2-5-1-1-6z" fill="#6E97C6"/>
<path transform="translate(480,322)" d="m0 0h6l1 3-4-1-1 1 6 3-1 4-1 1-7-1v-2l6 1-1-2-5-2z" fill="#1C324F"/>
<path transform="translate(481,163)" d="m0 0 3 1 3 10h-2v-2h-5v2l-3-1z" fill="#37577E"/>
<path transform="translate(334,59)" d="m0 0h3v19h-3z" fill="#242B34"/>
<path transform="translate(371,674)" d="m0 0 6 1 1 1v5l-2 2h-5z" fill="#6691C6"/>
<path transform="translate(320,322)" d="m0 0h6l2 3-7-1 1 6 3 1v-2h3l-2 4-7-1-1-1v-6z" fill="#1B3555"/>
<path transform="translate(522,774)" d="m0 0 8 2v8h-1v-7l-4 2v4l-5 1-2-1 1-2v-2-3z" fill="#7DA8D5"/>
<path transform="translate(431,322)" d="m0 0h6l2 3-7-1 1 6 5-1v3l-1 1-7-1-1-1v-6z" fill="#1D3350"/>
<path transform="translate(75,194)" d="m0 0h3l2 5 2-5 4 1-1 8-2-4-2 4h-2l-2-4v4h-2z" fill="#154174"/>
<path transform="translate(318,775)" d="m0 0 6 1 1 5-3 3h-4z" fill="#7E98BA"/>
<path transform="translate(545,623)" d="m0 0 6 1 1 1v5l-3 2h-4z" fill="#88AFD9"/>
<path transform="translate(408,573)" d="m0 0h5l1 1v6l-4 2-3-2v-6z" fill="#163C6A"/>
<path transform="translate(383,444)" d="m0 0 2 2v8l-5 1-3-3 1-5h4z" fill="#4779AA"/>
<path transform="translate(444,227)" d="m0 0 1 2 5 2 1 3-4-1-2-1-1 4v-4l-4 2 2 5-4-2v-5l4-3h2z" fill="#212D3C"/>
<path transform="translate(508,166)" d="m0 0 5 1 1 1v5l-1 1h-5l-2-2 1-5z" fill="#657B97"/>
<path transform="translate(86,135)" d="m0 0h5l1 1v5l-2 2-5-1-1-5z" fill="#D6EAFB"/>
<path transform="translate(75,132)" d="m0 0h2v4h4v-4h2l1 10-3 1v-5h-4v5h-2z" fill="#FBFCFC"/>
<path transform="translate(530,776)" d="m0 0h7l2 1v2h-2v2h-2v2l2 1h-6l-1-2z" fill="#C9DDEB"/>
<path transform="translate(399,573)" d="m0 0 5 1 1 1v5l-4 2-3-2v-6z" fill="#8799AE"/>
<path transform="translate(357,467)" d="m0 0 3 2-1 3 2 2-1 4-3 1-3-2 1-2 2 1-3-4 1-4z" fill="#1778DA"/>
<path transform="translate(442,232)" d="m0 0h2l2 5 3 2-2 6h-2v-5l-4-2-2-2 1-3z" fill="#7A8EA9"/>
<path transform="translate(355,319)" d="m0 0h3v3h2v2h-2v7h2v2l-4-1-1-1-1-9z" fill="#133A6F"/>
<path transform="translate(475,241)" d="m0 0 2 2-1 1 7 1v3h-13v-3z" fill="#163765"/>
<path transform="translate(360,66)" d="m0 0 4 1 1 5-2 3-5-1v-6z" fill="#FBFCFC"/>
<path transform="translate(727,527)" d="m0 0h5l2 5-2 3h-5z" fill="#88919C"/>
<path transform="translate(134,370)" d="m0 0 1 3 4-1 2 5-1 3h-6z" fill="#507AAF"/>
<path transform="translate(43,767)" d="m0 0h8v2l-5 1-1 3h5l-1 2h-3l-1 4h-2z" fill="#0A4591"/>
<path transform="translate(332,573)" d="m0 0 5 1v6l-5 1-1-1v-6z" fill="#7E91A9"/>
<path transform="translate(354,444)" d="m0 0 7 2-1 4-4 3-2 1z" fill="#4E7299"/>
<path transform="translate(651,575)" d="m0 0 7 1v5l-5 1 2-2-8-1v-3z" fill="#F5FCF9"/>
<path transform="translate(163,316)" d="m0 0h1v10h-5l-1-1v-5l5-1z" fill="#6C829D"/>
<path transform="translate(465,241)" d="m0 0h1v6l-2 1h-7l-3-3v-2l9 1z" fill="#1A3456"/>
<path transform="translate(106,135)" d="m0 0h5l1 4h-4v2l4-1v2l-5 1-2-2v-5z" fill="#EFF6FB"/>
<path transform="translate(300,775)" d="m0 0h2l3 4 2-4h2v9l-2-4-2 4-2-1-1-3-2 4z" fill="#10417F"/>
<path transform="translate(442,319)" d="m0 0h2v3h2v2h-2l1 6 2 1v2l-5-1v-8h-2v-2h2z" fill="#203043"/>
<path transform="translate(368,319)" d="m0 0h2v3h2v2h-2l1 6 2 1v2l-5-1v-8h-2v-2h2z" fill="#203043"/>
<path transform="translate(547,674)" d="m0 0 2 1-2 6h2v-5h2v7l-6-1-1-1v-5z" fill="#6F9FD1"/>
<path transform="translate(522,622)" d="m0 0 3 2v2l-2 1 2 2-2 3-5-1 1-2v-2-3z" fill="#94BADC"/>
<path transform="translate(393,444)" d="m0 0 5 2v2l-6-2v7l6-2v2l-5 2-4-3v-5z" fill="#104F93"/>
<path transform="translate(684,378)" d="m0 0h5v8l-5 1 1-2-1-1-1-4z" fill="#479CEB"/>
<path transform="translate(374,322)" d="m0 0h7v2l-3 1-1 8-3-1z" fill="#153F71"/>
<path transform="translate(301,319)" d="m0 0 3 1v5l-1 4 1 4-3-1-2-4-2-2 4-1z" fill="#242C36"/>
<path transform="translate(309,674)" d="m0 0 5 1 1 4v4h-2l-3-3-1 3z" fill="#4D73A0"/>
<path transform="translate(425,444)" d="m0 0h1v5h2v-2l3 1-1 4 1 2-4-1-3 1v-9z" fill="#0856AD"/>
<path transform="translate(86,373)" d="m0 0 5 1 1 4-2 2-5-1v-5z" fill="#7B8EA4"/>
<path transform="translate(183,258)" d="m0 0 5 1 1 4-2 2-5-1v-5z" fill="#7B8EA4"/>
<path transform="translate(466,163)" d="m0 0h1l1 5 4-2-1 5 1 3-3-1v-2h-2v3h-2v-10z" fill="#163764"/>
<path transform="translate(417,674)" d="m0 0 5 1-1 5h-3l-1 3h-1v-8z" fill="#5383C0"/>
<path transform="translate(335,725)" d="m0 0h1v8l-4 1-2-2 1-5h4z" fill="#5980B2"/>
<path transform="translate(474,229)" d="m0 0 7 1v3l-7-1-1 3h-3l2-5z" fill="#153867"/>
<path transform="translate(409,447)" d="m0 0 5 1 1 3h-5v2l4-1v2l-4 1-2-2v-5z" fill="#1C5A9C"/>
<path transform="translate(383,327)" d="m0 0h5l-3 3h3l3-3v6h-8l-1-5z" fill="#212F40"/>
<path transform="translate(156,255)" d="m0 0h2v4h5l1-4v10l-2-4-4-1v5h-2z" fill="#0B4A96"/>
<path transform="translate(541,166)" d="m0 0 6 1-3 2 4 2-1 3h-6v-2l3-1h-3z" fill="#144075"/>
<path transform="translate(624,726)" d="m0 0h5l1 5-5 1-2-5z" fill="#3573C1"/>
<path transform="translate(426,674)" d="m0 0 2 1 2 5-1 3-4-1h-3z" fill="#37669F"/>
<path transform="translate(358,674)" d="m0 0 2 1 2 5-1 3-4-1-2 1 1-7z" fill="#37669F"/>
<path transform="translate(367,447)" d="m0 0 5 1v6l-4 1-2-1 1-4h3l-4-2z" fill="#2A5C95"/>
<path transform="translate(456,166)" d="m0 0h6l1 1v7h-2v-6h-3v6h-2z" fill="#19355C"/>
<path transform="translate(516,166)" d="m0 0h2v7l2-1 1-6h2v8h-6l-1-1z" fill="#19365D"/>
<path transform="translate(343,64)" d="m0 0h6l3 2v2l-3 1v-2l-5 1-3 2-1-3z" fill="#1C3250"/>
<path transform="translate(458,674)" d="m0 0 4 4 2-4v9l-5-4-1 4h-1v-8z" fill="#0F4687"/>
<path transform="translate(390,573)" d="m0 0h5l1 4-4 4h-2z" fill="#4472AA"/>
<path transform="translate(631,376)" d="m0 0h1v8h-5l-1-4 1-2h4z" fill="#53A0EA"/>
<path transform="translate(397,64)" d="m0 0h6l3 4v3l-4-1-1-3-6-1z" fill="#222E3D"/>
<path transform="translate(322,64)" d="m0 0h6l3 4v3l-4-1-1-3-6-1z" fill="#222E3D"/>
<path transform="translate(456,322)" d="m0 0 4 1-3 2v5l3 1v2l-5-1-2-5z" fill="#252B31"/>
<path transform="translate(363,674)" d="m0 0 6 1-1 6-3-1-1 3z" fill="#577CAD"/>
<path transform="translate(1e3 622)" d="m0 0 7 1v8l-3-1v-5h-5z" fill="#FBFCFC"/>
<path transform="translate(309,573)" d="m0 0 1 2 4 1 1 2-1 3h-5z" fill="#687C93"/>
<path transform="translate(458,229)" d="m0 0h5l2 4-2 1v-2h-5v2l-4-1z" fill="#163764"/>
<path transform="translate(41,41)" d="m0 0h2v4h-3l-1 3-7 1 5-4z" fill="#0789F8"/>
<path transform="translate(327,778)" d="m0 0h5v5l-4 1-2-2z" fill="#6B8CB1"/>
<path transform="translate(400,444)" d="m0 0 2 3 4 1v6h-2v-5l-2 1-1 4-2-1v-8z" fill="#0F4A8C"/>
<path transform="translate(457,324)" d="m0 0 4 1v5l-4 1-1-1v-5z" fill="#FBFCFC"/>
<path transform="translate(525,166)" d="m0 0h6l2 7-2 1v-6h-4v6h-2z" fill="#173763"/>
<path transform="translate(78,47)" d="m0 0 5 1-1 5h-5v-5z" fill="#FBFCFC"/>
<path transform="translate(418,447)" d="m0 0 5 1-2 2-3-1 2 3 3 1-5 2-2-2 1-5z" fill="#0D56A2"/>
<path transform="translate(89,319)" d="m0 0h5v7h-5l-1-4 4-1z" fill="#416491"/>
<path transform="translate(89,258)" d="m0 0h5v7h-5l-1-4 4-1z" fill="#416491"/>
<path transform="translate(365,65)" d="m0 0 3 3-1 8-3-2v-7z" fill="#19355B"/>
<path transform="translate(659,677)" d="m0 0h8v3l-1 1h-7z" fill="#F3FCF8"/>
<path transform="translate(146,372)" d="m0 0 2 1v7h-5l-1-3 4-2-3-2z" fill="#466488"/>
<path transform="translate(426,324)" d="m0 0h1v9l-7-2 1-3h4z" fill="#6080AB"/>
<path transform="translate(134,316)" d="m0 0h6v2h-5l2 2h2v2l-3 2-2 2z" fill="#0F5298"/>
<path transform="translate(448,166)" d="m0 0 5 1 1 1v6h-7l1-3v2l3-1-1-4-3-1z" fill="#173863"/>
<path transform="translate(61,40)" d="m0 0h2v6l5-2v5h-2v-2h-3v6l-2-1z" fill="#094290"/>
<path transform="translate(625,827)" d="m0 0 5 1v4h-6z" fill="#3271C0"/>
<path transform="translate(445,447)" d="m0 0h6l-1 6h-4z" fill="#6B9EDA"/>
<path transform="translate(739,376)" d="m0 0 6 1-1 4h-4l-1 3z" fill="#518ED6"/>
<path transform="translate(484,327)" d="m0 0 4 1-1 4-1 1-7-1v-2l6 1z" fill="#1E304A"/>
<path transform="translate(472,322)" d="m0 0 4 1v10h-2l-1-9-2-1z" fill="#203043"/>
<path transform="translate(400,322)" d="m0 0 4 1v10h-2l-1-9-2-1z" fill="#203043"/>
<path transform="translate(348,322)" d="m0 0 4 1v10h-2l-1-9-2-1z" fill="#203043"/>
<path transform="translate(332,322)" d="m0 0 5 2 1 3h-8z" fill="#5375A2"/>
<path transform="translate(308,322)" d="m0 0 5 2 1 3h-8z" fill="#5375A2"/>
<path transform="translate(52,194)" d="m0 0 4 1-2 4h3l-1 4h-4z" fill="#2479D5"/>
<path transform="translate(389,68)" d="m0 0h1v10h-3v-9z" fill="#252A31"/>
<path transform="translate(358,64)" d="m0 0h6l1 3h-5l-5 3 1-4z" fill="#202E40"/>
<path transform="translate(77,40)" d="m0 0 5 1-1 5h-4z" fill="#FBFCFC"/>
<path transform="translate(541,623)" d="m0 0h2l1 7-1 2h-2v-2l-4-1h4v-2h-2v-2h2z" fill="#004BB2"/>
<path transform="translate(436,447)" d="m0 0h6v7l-2-1v-3l-2-1-1 5h-1z" fill="#144B83"/>
<path transform="translate(491,229)" d="m0 0 5 1v2l-5 1-2 2-2-3 1-2z" fill="#1C3453"/>
<path transform="translate(124,194)" d="m0 0 2 1-1 3 5-2-1 5 1 2-4-1-2 1z" fill="#143D6F"/>
<path transform="translate(87,196)" d="m0 0h2l2 3 1-3 2 1-4 9-3-1h2z" fill="#0F4486"/>
<path transform="translate(75,194)" d="m0 0h3l3 7-3-1-1-1v4h-2z" fill="#0A4997"/>
<path transform="translate(660,778)" d="m0 0h8l-1 4h-7z" fill="#F3FCF8"/>
<path transform="translate(993,726)" d="m0 0h4v6h-4l-1-4z" fill="#0789F8"/>
<path transform="translate(1007,725)" d="m0 0 5 1-3 1 1 6-4-1v-6z" fill="#FAFCFB"/>
<path transform="translate(624,676)" d="m0 0 5 1-1 4-5-1z" fill="#3674C1"/>
<path transform="translate(446,674)" d="m0 0h2v9l-2-4-2 4-2-2 1-3z" fill="#143E72"/>
<path transform="translate(659,626)" d="m0 0h8l-1 4h-7z" fill="#F3FCF8"/>
<path transform="translate(624,625)" d="m0 0 5 1-1 4-5-1z" fill="#3674C1"/>
<path transform="translate(624,575)" d="m0 0 5 1-1 4-5-1z" fill="#3674C1"/>
<path transform="translate(409,574)" d="m0 0 4 1-1 5-4-1z" fill="#FBFCFC"/>
<path transform="translate(1007,573)" d="m0 0 5 1-3 1 1 6-4-1v-6z" fill="#FAFCFB"/>
<path transform="translate(196,258)" d="m0 0 2 1v3h2l1-4 1 2-3 7h-3l1-3z" fill="#0F4586"/>
<path transform="translate(515,203)" d="m0 0 3 1h-2v3l3 1h-3v3l4-1v2h-5l-1-1v-7z" fill="#0560C3"/>
<path transform="translate(535,164)" d="m0 0h2v2h2v2h-2v5l2 1h-4z" fill="#1E324A"/>
<path transform="translate(95,45)" d="m0 0 2 1-1 6-4 1-1-5h4z" fill="#6D95C9"/>
</svg>
